<svg version="1.1" id="Layer_1" xmlns="http://www.w3.org/2000/svg" xmlns:xlink="http://www.w3.org/1999/xlink" x="0px" y="0px"
	 width="100%" viewBox="0 0 512 512" enable-background="new 0 0 512 512" xml:space="preserve">
<path fill="#000000" opacity="1.000000" stroke="none" 
	d="
M297.000000,513.000000 
	C198.024033,513.000000 99.548058,513.000000 1.036045,513.000000 
	C1.036045,342.399017 1.036045,171.798004 1.036045,1.098500 
	C171.559311,1.098500 342.118713,1.098500 512.839050,1.098500 
	C512.839050,171.666550 512.839050,342.333252 512.839050,513.000000 
	C441.131317,513.000000 369.315643,513.000000 297.000000,513.000000 
M84.301414,105.179398 
	C77.696693,109.058189 77.793190,115.979446 77.107162,122.198174 
	C75.452858,137.194183 74.325294,152.248566 73.006821,167.281281 
	C71.989105,178.884979 71.002846,190.491440 70.004768,202.096878 
	C68.669067,217.628006 67.351990,233.160782 65.995392,248.690079 
	C65.025116,259.796997 63.979935,270.897400 63.009712,282.004333 
	C61.653305,297.532288 60.352104,313.065033 58.995720,328.592987 
	C58.025402,339.701263 56.918701,350.798187 56.025940,361.912506 
	C54.933704,375.510040 54.072498,389.126221 52.962940,402.722229 
	C52.551983,407.757965 51.507095,412.743439 51.130493,417.780182 
	C50.576687,425.186859 50.038979,432.622223 50.113407,440.039124 
	C50.166740,445.354126 56.914703,452.367554 61.745525,452.976929 
	C67.578110,453.712708 73.412766,454.489471 79.269554,454.964478 
	C92.865234,456.067139 106.474907,456.997070 120.078583,458.001465 
	C124.669159,458.340393 129.266647,458.611023 133.847305,459.054077 
	C147.047836,460.330780 160.232727,461.775787 173.440659,462.967316 
	C182.773697,463.809296 192.142303,464.250763 201.480637,465.041107 
	C216.184097,466.285583 230.873138,467.699524 245.572830,468.989838 
	C253.914307,469.722076 262.269348,470.300293 270.610352,471.037506 
	C285.142456,472.321838 299.666412,473.698395 314.197815,474.991058 
	C322.373291,475.718353 330.558655,476.334290 338.736359,477.037231 
	C353.936829,478.343842 369.145874,479.564575 384.330231,481.038879 
	C394.760223,482.051483 401.148712,474.007965 401.938812,464.862274 
	C403.198730,450.277679 404.079651,435.660309 406.020386,421.005096 
	C418.772186,420.003418 431.508484,418.552307 444.279633,418.112000 
	C460.846497,417.540833 465.363922,408.058960 463.997772,393.945862 
	C462.689667,380.432495 461.257019,366.930786 460.027344,353.410461 
	C459.209442,344.417816 458.736389,335.394226 457.958435,326.397491 
	C456.704254,311.893585 455.290771,297.403534 454.013336,282.901550 
	C453.264496,274.400330 452.707642,265.882141 451.960052,257.380798 
	C450.683258,242.861343 449.307251,228.350662 448.010162,213.832962 
	C447.601685,209.261002 447.388428,204.671188 446.954346,200.102036 
	C445.671509,186.598785 444.234222,173.109695 443.030640,159.599625 
	C442.199493,150.270203 441.804016,140.901642 440.951324,131.574570 
	C439.404175,114.651329 437.534790,97.757050 436.055847,80.828316 
	C435.361938,72.885826 428.599792,65.928162 420.754578,66.039764 
	C416.853485,66.095276 412.958344,66.569069 409.098816,66.080292 
	C409.422821,64.807495 409.574738,63.458488 410.099091,62.274399 
	C413.260498,55.135170 407.922424,41.961353 401.933746,37.933437 
	C392.476654,31.572668 381.538208,31.228819 373.022156,36.284950 
	C363.380341,42.009457 357.553833,57.678757 365.025146,70.985725 
	C360.938995,71.323082 356.851685,71.646889 352.766907,72.000214 
	C337.421936,73.327515 322.077118,74.656563 306.733612,76.000389 
	C295.471680,76.986740 284.213287,78.013138 272.950836,78.993027 
	C257.439758,80.342567 241.925827,81.659004 226.414108,83.001175 
	C214.987747,83.989868 203.562775,84.994461 192.137589,85.996658 
	C176.958282,87.328148 161.785889,88.744507 146.598389,89.974548 
	C132.849655,91.088081 119.076088,91.897751 105.329887,93.039131 
	C96.737556,93.752563 88.488792,95.367279 84.301414,105.179398 
z"/>
<path fill="#D3DCE5" opacity="1.000000" stroke="none" 
	d="
M409.060516,66.853638 
	C412.958344,66.569069 416.853485,66.095276 420.754578,66.039764 
	C428.599792,65.928162 435.361938,72.885826 436.055847,80.828316 
	C437.534790,97.757050 439.404175,114.651329 440.951324,131.574570 
	C441.804016,140.901642 442.199493,150.270203 443.030640,159.599625 
	C444.234222,173.109695 445.671509,186.598785 446.954346,200.102036 
	C447.388428,204.671188 447.601685,209.261002 448.010162,213.832962 
	C449.307251,228.350662 450.683258,242.861343 451.960052,257.380798 
	C452.707642,265.882141 453.264496,274.400330 454.013336,282.901550 
	C455.290771,297.403534 456.704254,311.893585 457.958435,326.397491 
	C458.736389,335.394226 459.209442,344.417816 460.027344,353.410461 
	C461.257019,366.930786 462.689667,380.432495 463.997772,393.945862 
	C465.363922,408.058960 460.846497,417.540833 444.279633,418.112000 
	C431.508484,418.552307 418.772186,420.003418 405.118896,421.015930 
	C390.826782,422.090607 377.434082,423.129181 364.046387,424.228333 
	C356.777222,424.825165 349.514771,425.506866 342.252319,426.182648 
	C328.720581,427.441833 315.196350,428.785522 301.658722,429.976868 
	C292.240875,430.805634 282.800171,431.372559 273.379730,432.174438 
	C259.011536,433.397461 244.652466,434.727631 230.288635,436.002289 
	C221.863632,436.749939 213.434906,437.456055 205.011398,438.219940 
	C191.311401,439.462372 177.614746,440.741943 163.915787,441.995972 
	C153.518158,442.947784 143.091156,443.651703 132.729187,444.897858 
	C123.680450,445.986115 113.945267,440.077728 113.111198,431.979431 
	C111.854340,419.775940 111.016579,407.529419 109.994331,395.301697 
	C109.262016,386.541992 108.562157,377.779327 107.771362,369.024872 
	C106.548744,355.489838 105.219200,341.964355 104.015160,328.427734 
	C103.206970,319.341461 102.587280,310.238495 101.794144,301.150787 
	C100.569252,287.115875 99.238869,273.090118 98.009895,259.055542 
	C97.228607,250.133377 96.613022,241.196548 95.810509,232.276443 
	C94.592758,218.740967 93.194801,205.221420 92.026375,191.681885 
	C90.871361,178.297897 89.937325,164.895004 88.849594,151.505005 
	C87.587883,135.973389 86.264343,120.446800 84.967651,104.918030 
	C88.488792,95.367279 96.737556,93.752563 105.329887,93.039131 
	C119.076088,91.897751 132.849655,91.088081 146.598389,89.974548 
	C161.785889,88.744507 176.958282,87.328148 192.137589,85.996658 
	C203.562775,84.994461 214.987747,83.989868 226.414108,83.001175 
	C241.925827,81.659004 257.439758,80.342567 272.950836,78.993027 
	C284.213287,78.013138 295.471680,76.986740 306.733612,76.000389 
	C322.077118,74.656563 337.421936,73.327515 352.766907,72.000214 
	C356.851685,71.646889 360.938995,71.323082 365.802917,71.029587 
	C367.717926,72.714973 368.855225,74.356506 369.705811,76.198853 
	C364.679321,87.397606 359.858704,98.361694 355.238312,109.409515 
	C353.293854,114.058815 355.065155,118.375366 359.262573,120.292503 
	C363.368591,122.167885 367.824982,120.480278 369.889648,115.743065 
	C374.872437,104.310547 379.612457,92.772209 384.847321,81.184814 
	C388.932953,80.337929 393.263367,80.545166 396.165344,78.610161 
	C400.949646,75.420036 404.810455,70.844955 409.060516,66.853638 
z"/>
<path fill="#B8C3D5" opacity="1.000000" stroke="none" 
	d="
M84.634529,105.048714 
	C86.264343,120.446800 87.587883,135.973389 88.849594,151.505005 
	C89.937325,164.895004 90.871361,178.297897 92.026375,191.681885 
	C93.194801,205.221420 94.592758,218.740967 95.810509,232.276443 
	C96.613022,241.196548 97.228607,250.133377 98.009895,259.055542 
	C99.238869,273.090118 100.569252,287.115875 101.794144,301.150787 
	C102.587280,310.238495 103.206970,319.341461 104.015160,328.427734 
	C105.219200,341.964355 106.548744,355.489838 107.771362,369.024872 
	C108.562157,377.779327 109.262016,386.541992 109.994331,395.301697 
	C111.016579,407.529419 111.854340,419.775940 113.111198,431.979431 
	C113.945267,440.077728 123.680450,445.986115 132.729187,444.897858 
	C143.091156,443.651703 153.518158,442.947784 163.915787,441.995972 
	C177.614746,440.741943 191.311401,439.462372 205.011398,438.219940 
	C213.434906,437.456055 221.863632,436.749939 230.288635,436.002289 
	C244.652466,434.727631 259.011536,433.397461 273.379730,432.174438 
	C282.800171,431.372559 292.240875,430.805634 301.658722,429.976868 
	C315.196350,428.785522 328.720581,427.441833 342.252319,426.182648 
	C349.514771,425.506866 356.777222,424.825165 364.046387,424.228333 
	C377.434082,423.129181 390.826782,422.090607 404.669098,421.041809 
	C404.079651,435.660309 403.198730,450.277679 401.938812,464.862274 
	C401.148712,474.007965 394.760223,482.051483 384.330231,481.038879 
	C369.145874,479.564575 353.936829,478.343842 338.736359,477.037231 
	C330.558655,476.334290 322.373291,475.718353 314.197815,474.991058 
	C299.666412,473.698395 285.142456,472.321838 270.610352,471.037506 
	C262.269348,470.300293 253.914307,469.722076 245.572830,468.989838 
	C230.873138,467.699524 216.184097,466.285583 201.480637,465.041107 
	C192.142303,464.250763 182.773697,463.809296 173.440659,462.967316 
	C160.232727,461.775787 147.047836,460.330780 133.847305,459.054077 
	C129.266647,458.611023 124.669159,458.340393 120.078583,458.001465 
	C106.474907,456.997070 92.865234,456.067139 79.269554,454.964478 
	C73.412766,454.489471 67.578110,453.712708 61.745525,452.976929 
	C56.914703,452.367554 50.166740,445.354126 50.113407,440.039124 
	C50.038979,432.622223 50.576687,425.186859 51.130493,417.780182 
	C51.507095,412.743439 52.551983,407.757965 52.962940,402.722229 
	C54.072498,389.126221 54.933704,375.510040 56.025940,361.912506 
	C56.918701,350.798187 58.025402,339.701263 58.995720,328.592987 
	C60.352104,313.065033 61.653305,297.532288 63.009712,282.004333 
	C63.979935,270.897400 65.025116,259.796997 65.995392,248.690079 
	C67.351990,233.160782 68.669067,217.628006 70.004768,202.096878 
	C71.002846,190.491440 71.989105,178.884979 73.006821,167.281281 
	C74.325294,152.248566 75.452858,137.194183 77.107162,122.198174 
	C77.793190,115.979446 77.696693,109.058189 84.634529,105.048714 
z"/>
<path fill="#335068" opacity="1.000000" stroke="none" 
	d="
M409.079651,66.466965 
	C404.810455,70.844955 400.949646,75.420036 396.165344,78.610161 
	C393.263367,80.545166 388.932953,80.337929 384.435303,81.101486 
	C379.081726,79.405922 374.537140,77.701973 369.992523,75.998032 
	C368.855225,74.356506 367.717926,72.714973 366.254333,70.958870 
	C357.553833,57.678757 363.380341,42.009457 373.022156,36.284950 
	C381.538208,31.228819 392.476654,31.572668 401.933746,37.933437 
	C407.922424,41.961353 413.260498,55.135170 410.099091,62.274399 
	C409.574738,63.458488 409.422821,64.807495 409.079651,66.466965 
z"/>
<path fill="#556A84" opacity="1.000000" stroke="none" 
	d="
M369.705811,76.198853 
	C374.537140,77.701973 379.081726,79.405922 384.038361,81.193207 
	C379.612457,92.772209 374.872437,104.310547 369.889648,115.743065 
	C367.824982,120.480278 363.368591,122.167885 359.262573,120.292503 
	C355.065155,118.375366 353.293854,114.058815 355.238312,109.409515 
	C359.858704,98.361694 364.679321,87.397606 369.705811,76.198853 
z"/>
</svg>